<svg width="225" height="60" viewBox="0 0 225 60" fill="none" xmlns="http://www.w3.org/2000/svg">
<path d="M85.6094 39.375C90.3281 39.375 93.9375 36.5781 94.7969 32.2656L94.8281 32.1094H91.9844L91.9375 32.25C90.9531 35.2188 88.7656 36.7812 85.6094 36.7812C81.125 36.7812 78.2031 33.2031 78.2031 27.7188V27.7031C78.2031 22.2188 81.1094 18.6719 85.6094 18.6719C88.7812 18.6719 91 20.2656 91.875 23L91.9844 23.3438H94.8281L94.7969 23.1875C93.9375 18.9219 90.2969 16.0781 85.6094 16.0781C79.3281 16.0781 75.3125 20.6094 75.3125 27.7031V27.7188C75.3125 34.8125 79.3438 39.375 85.6094 39.375ZM104.469 39.3125C108.953 39.3125 111.984 36.0625 111.984 30.875V30.8438C111.984 25.6562 108.938 22.4375 104.453 22.4375C99.9688 22.4375 96.9375 25.6719 96.9375 30.8438V30.875C96.9375 36.0469 99.9531 39.3125 104.469 39.3125ZM104.484 36.9062C101.609 36.9062 99.7188 34.7031 99.7188 30.875V30.8438C99.7188 27.0469 101.625 24.8438 104.453 24.8438C107.328 24.8438 109.203 27.0312 109.203 30.8438V30.875C109.203 34.6875 107.344 36.9062 104.484 36.9062ZM120.844 39.3125C123.172 39.3125 124.984 38.1406 126 36.25H126.062V39H128.781V16.4531H126.062V25.4688H126C124.984 23.5938 123.094 22.4375 120.797 22.4375C116.719 22.4375 113.938 25.7344 113.938 30.8594V30.875C113.938 36 116.688 39.3125 120.844 39.3125ZM121.375 36.9062C118.5 36.9062 116.719 34.6094 116.719 30.875V30.8594C116.719 27.1562 118.5 24.8438 121.375 24.8438C124.109 24.8438 126.078 27.2344 126.078 30.8594V30.875C126.078 34.5156 124.125 36.9062 121.375 36.9062ZM139.141 39.3125C142.688 39.3125 145.344 37.1875 145.875 34.5L145.906 34.3438H143.234L143.188 34.4844C142.719 35.875 141.266 36.9062 139.203 36.9062C136.312 36.9062 134.469 34.9531 134.406 31.6094H146.109V30.6094C146.109 25.7344 143.406 22.4375 138.969 22.4375C134.531 22.4375 131.656 25.8906 131.656 30.9219V30.9375C131.656 36.0469 134.469 39.3125 139.141 39.3125ZM138.953 24.8438C141.328 24.8438 143.078 26.3281 143.344 29.4844H134.453C134.75 26.4531 136.594 24.8438 138.953 24.8438ZM156.656 39.375C161.812 39.375 164.984 36.8438 164.984 32.8438V32.8281C164.984 29.3906 163.047 27.5156 158.422 26.5L155.922 25.9531C152.984 25.3125 151.625 24.1562 151.625 22.3125V22.2969C151.625 20.125 153.594 18.6875 156.609 18.6719C159.469 18.6719 161.391 20.0312 161.734 22.3281L161.766 22.5469H164.578L164.562 22.3125C164.312 18.625 161.094 16.0781 156.688 16.0781C152.047 16.0781 148.766 18.6719 148.75 22.375V22.3906C148.75 25.6875 150.812 27.6719 155.219 28.6406L157.719 29.1875C160.812 29.875 162.109 30.9844 162.109 32.9688V32.9844C162.109 35.3125 160.062 36.7812 156.812 36.7812C153.547 36.7812 151.359 35.3906 151.031 33.125L151 32.9062H148.188L148.203 33.125C148.484 36.9844 151.781 39.375 156.656 39.375ZM179.188 44.4688H181.906V22.75H179.188V25.5H179.125C178.125 23.7031 176.312 22.4688 174.016 22.4688C169.891 22.4688 167.062 25.7656 167.062 30.8438V30.8594C167.062 35.9688 169.859 39.2812 173.953 39.2812C176.281 39.2812 178.156 38.1406 179.125 36.3594H179.188V44.4688ZM174.547 36.875C171.656 36.875 169.844 34.5781 169.844 30.8594V30.8438C169.844 27.2031 171.656 24.875 174.547 24.875C177.297 24.875 179.188 27.2344 179.188 30.8438V30.8594C179.188 34.5 177.312 36.875 174.547 36.875ZM190.969 39.3125C193.438 39.3125 195.094 38.2031 195.969 36.6875H196.031V39H198.75V22.75H196.031V32.3125C196.031 35.0781 194.359 36.9062 191.797 36.9062C189.297 36.9062 188.062 35.4531 188.062 32.8125V22.75H185.344V33.2969C185.344 37 187.406 39.3125 190.969 39.3125ZM203.828 20C204.781 20 205.531 19.2344 205.531 18.2969C205.531 17.3438 204.781 16.5938 203.828 16.5938C202.891 16.5938 202.125 17.3438 202.125 18.2969C202.125 19.2344 202.891 20 203.828 20ZM202.469 39H205.188V22.75H202.469V39ZM215 39.3125C217.328 39.3125 219.141 38.1406 220.156 36.25H220.219V39H222.938V16.4531H220.219V25.4688H220.156C219.141 23.5938 217.25 22.4375 214.953 22.4375C210.875 22.4375 208.094 25.7344 208.094 30.8594V30.875C208.094 36 210.844 39.3125 215 39.3125ZM215.531 36.9062C212.656 36.9062 210.875 34.6094 210.875 30.875V30.8594C210.875 27.1562 212.656 24.8438 215.531 24.8438C218.266 24.8438 220.234 27.2344 220.234 30.8594V30.875C220.234 34.5156 218.281 36.9062 215.531 36.9062Z" fill="white"/>
<path fill-rule="evenodd" clip-rule="evenodd" d="M30 0C46.5685 0 60 13.4315 60 30V60H30C13.4315 60 0 46.5685 0 30C-3.8147e-06 13.4315 13.4315 0 30 0Z" fill="#918EF4"/>
<path fill-rule="evenodd" clip-rule="evenodd" d="M15.68 30.585V30.193C18.098 29.948 19.28 28.714 19.28 26.344V22.021C19.28 19.389 20.218 18.321 22.537 18.321H23.194V16H22.294C18.412 16 16.584 17.826 16.584 21.658V25.324C16.584 27.956 15.684 28.824 13 28.824V31.949C15.68 31.949 16.584 32.82 16.584 35.449V39.115C16.584 42.947 18.41 44.773 22.29 44.773H23.19V42.458H22.533C20.214 42.458 19.276 41.39 19.276 38.758V34.434C19.281 32.066 18.1 30.832 15.68 30.585ZM44 30.193V30.585C41.582 30.833 40.4 32.067 40.4 34.434V38.759C40.4 41.391 39.462 42.459 37.143 42.459H36.486V44.778H37.386C41.266 44.778 43.092 42.952 43.092 39.12V35.453C43.092 32.821 43.992 31.953 46.676 31.953V28.826C43.996 28.826 43.092 27.955 43.092 25.326V21.658C43.093 17.826 41.264 16 37.387 16H36.487V18.319H37.144C39.463 18.319 40.401 19.387 40.401 22.019V26.344C40.401 28.711 41.584 29.944 44.001 30.193H44Z" fill="white"/>
<path fill-rule="evenodd" clip-rule="evenodd" d="M30.5 27C32.433 27 34 28.567 34 30.5V34H30.5C28.567 34 27 32.433 27 30.5C27 28.567 28.567 27 30.5 27Z" fill="white"/>
</svg>
